<svg width="187" height="22" viewBox="0 0 187 22" fill="none" xmlns="http://www.w3.org/2000/svg">
<path d="M35.1184 17.9867C32.1997 17.9867 29.1151 16.0171 27.603 14.5886C25.9476 13.0238 21.4036 7.93629 21.381 7.91293C18.402 4.47587 14.3936 0.665123 10.3926 0.665123C5.57717 0.665123 1.37639 4.10608 0.286602 8.66807C0.369562 8.36836 1.90054 4.19171 7.6474 4.19171C10.5661 4.19171 13.6507 6.16131 15.1628 7.58986C16.8183 9.15463 21.3622 14.2421 21.3848 14.2654C24.3638 17.6987 28.3723 21.5094 32.3732 21.5094C37.1886 21.5094 41.3894 18.0685 42.483 13.5064C42.4 13.8061 40.869 17.9828 35.1222 17.9828L35.1184 17.9867Z" fill="white"/>
<path d="M21.381 14.2655C21.381 14.2655 20.0612 12.7864 18.5943 11.1905C17.8024 12.1635 16.6561 13.487 15.3438 14.6743C12.8964 16.8891 11.3051 17.3562 10.3926 17.3562C6.95731 17.3562 4.15553 14.5458 4.15553 11.0892C4.15553 7.63272 6.95354 4.8418 10.3926 4.82234C10.517 4.82234 10.6678 4.83402 10.8527 4.86905C9.81938 4.46034 8.72211 4.19171 7.6474 4.19171C1.90055 4.19171 0.369562 8.36446 0.286602 8.66807C0.101828 9.44656 0 10.2563 0 11.0853C0 16.8306 4.59295 21.5095 10.321 21.5095C12.7079 21.5095 15.3815 20.2444 18.138 17.7532C19.439 16.5737 20.5702 15.3165 21.4187 14.3005C21.4074 14.2889 21.396 14.2772 21.3847 14.2616L21.381 14.2655Z" fill="white"/>
<path d="M21.381 7.90904C21.381 7.90904 22.7008 9.38815 24.1677 10.9841C24.9595 10.011 26.1059 8.68754 27.4181 7.50033C29.8655 5.28551 31.4568 4.81841 32.3694 4.81841C35.8046 4.81841 38.6064 7.62878 38.6064 11.0853C38.6064 14.5224 35.8084 17.3327 32.3694 17.3522C32.2449 17.3522 32.0941 17.3405 31.9093 17.3055C32.9425 17.7142 34.0399 17.9828 35.1146 17.9828C40.8615 17.9828 42.3924 13.8061 42.4753 13.5064C42.6602 12.7279 42.762 11.9183 42.762 11.0892C42.762 5.34389 38.0936 0.665123 32.3694 0.665123C29.9824 0.665123 27.3805 1.93018 24.6278 4.42138C23.3268 5.6008 22.1955 6.85807 21.3471 7.87401C21.3583 7.88569 21.3697 7.89737 21.381 7.91293L21.381 7.90904Z" fill="white"/>
<path d="M81.0259 9.91796H83.6714C85.3967 9.91796 86.5756 8.8804 86.5756 7.24995C86.5756 5.5602 85.3967 4.55229 83.6714 4.55229H81.0259V9.91796ZM84.1314 13.9496H80.9971V21.509H76.4539V0.490972H84.1314C88.2722 0.490972 91.1192 3.30721 91.1192 7.2203C91.1192 11.1927 88.2722 13.9496 84.1314 13.9496Z" fill="white"/>
<path d="M64.5072 21.9537C58.6412 21.9537 53.9254 17.5959 53.9254 11.0445C53.9254 4.49301 58.7562 0.0463196 64.4497 0.0463196C70.5745 0.0463196 73.2775 4.10763 73.9389 7.13139L69.6544 8.52468C69.3381 7.0721 68.0441 4.61159 64.4497 4.61159C61.718 4.61159 58.6412 6.62743 58.6412 11.0445C58.6412 14.9872 61.4592 17.2698 64.5072 17.2698C68.0441 17.2698 69.4531 14.839 69.8557 13.3271L74.1977 14.6018C73.5363 17.507 70.8333 21.9537 64.5072 21.9537Z" fill="white"/>
<path d="M51.5539 21.509H46.9531V0.490972H51.5539V21.509Z" fill="white"/>
<path fill-rule="evenodd" clip-rule="evenodd" d="M76.4089 0.444652H84.1314C86.2119 0.444652 87.9701 1.15224 89.2088 2.35451C90.4479 3.55692 91.1641 5.2517 91.1641 7.2203C91.1641 9.21844 90.4479 10.9133 89.2087 12.1084C87.97 13.3034 86.2116 13.9959 84.1314 13.9959H81.0421V21.5553H76.4089V0.444652ZM76.4988 0.537291V21.4627H80.9522V13.9033H84.1314C86.1921 13.9033 87.9275 13.2174 89.1473 12.0408C90.367 10.8644 91.0742 9.19453 91.0742 7.2203C91.0742 5.27583 90.3671 3.60593 89.1472 2.42196C87.9273 1.23782 86.1918 0.537291 84.1314 0.537291H76.4988ZM80.981 4.50597H83.6714C84.5423 4.50597 85.2798 4.76039 85.8002 5.23269C86.3213 5.70561 86.6205 6.39324 86.6205 7.24995C86.6205 8.07745 86.321 8.7575 85.8002 9.23011C85.2799 9.70229 84.5425 9.96428 83.6714 9.96428H80.981V4.50597ZM81.0708 4.5986V9.87164H83.6714C84.5255 9.87164 85.2402 9.61484 85.7408 9.16061C86.2408 8.70687 86.5307 8.0529 86.5307 7.24995C86.5307 6.41692 86.2405 5.75571 85.7408 5.30223C85.2405 4.84814 84.5258 4.5986 83.6714 4.5986H81.0708Z" fill="white"/>
<path fill-rule="evenodd" clip-rule="evenodd" d="M64.4497 0.0926393C58.7801 0.0926393 53.9703 4.51967 53.9703 11.0445C53.9703 17.569 58.6647 21.9074 64.5072 21.9074C70.7758 21.9074 73.4693 17.5252 74.144 14.6342L69.8868 13.3844C69.678 14.1406 69.2227 15.1115 68.3872 15.8996C67.534 16.7044 66.2866 17.3161 64.5072 17.3161C61.4366 17.3161 58.5963 15.015 58.5963 11.0445C58.5963 8.82399 59.3701 7.20309 60.4906 6.1376C61.6103 5.07289 63.0737 4.56527 64.4497 4.56527C66.2579 4.56527 67.4912 5.18455 68.3123 5.98986C69.1142 6.77637 69.5204 7.73771 69.6873 8.46543L73.8859 7.10007C73.2126 4.09783 70.5218 0.0926393 64.4497 0.0926393ZM53.8805 11.0445C53.8805 4.46636 58.7325 0 64.4497 0C70.5993 0 73.3177 4.08038 73.9827 7.1212L73.9918 7.16275L69.6213 8.58403L69.6105 8.53483C69.4539 7.81541 69.0549 6.84604 68.2504 6.05698C67.4468 5.26889 66.236 4.65791 64.4497 4.65791C63.0941 4.65791 61.6532 5.15821 60.5515 6.20569C59.4508 7.25238 58.6861 8.84792 58.6861 11.0445C58.6861 14.9594 61.4818 17.2235 64.5072 17.2235C66.2647 17.2235 67.4903 16.62 68.3265 15.8312C69.1637 15.0417 69.6128 14.0643 69.8123 13.3149L69.8244 13.2697L74.2512 14.5694L74.2414 14.6125C73.5766 17.5325 70.8597 22 64.5072 22C58.6179 22 53.8805 17.623 53.8805 11.0445Z" fill="white"/>
<path fill-rule="evenodd" clip-rule="evenodd" d="M46.9082 0.444652H51.5989V21.5553H46.9082V0.444652ZM46.9981 0.537291V21.4627H51.509V0.537291H46.9981Z" fill="white"/>
<path d="M177.268 13.4494H184.358C184.304 11.5317 183.091 10.031 180.8 10.031C178.67 10.031 177.376 11.7263 177.268 13.4494ZM184.736 16.9234L186.919 17.7015C186.191 20.0638 184.115 21.9259 181.096 21.9259C177.619 21.9259 174.572 19.3135 174.572 14.7834C174.572 10.5868 177.511 7.72427 180.773 7.72427C184.762 7.72427 187 10.559 187 14.7278C187 15.0613 186.973 15.3948 186.946 15.5616H177.187C177.241 17.9517 178.913 19.6192 181.096 19.6192C183.199 19.6192 184.25 18.4241 184.736 16.9234Z" fill="white"/>
<path d="M162.91 13.7829V21.509H160.376V8.14113H162.857V10.0588C163.8 8.39126 165.337 7.75205 166.846 7.75205C169.946 7.75205 171.483 10.0588 171.483 13.0325V21.509H168.949V13.4772C168.949 11.6151 168.194 10.1144 165.93 10.1144C163.935 10.1144 162.91 11.7541 162.91 13.7829Z" fill="white"/>
<path d="M156.276 21.509H153.769V8.14115H156.276V21.509ZM153.203 3.08303C153.203 2.02694 154.012 1.19319 155.009 1.19319C156.034 1.19319 156.842 2.02694 156.842 3.08303C156.842 4.11133 156.034 4.94509 155.009 4.94509C154.012 4.94509 153.203 4.11133 153.203 3.08303Z" fill="white"/>
<path d="M138.796 17.9239C138.796 15.5338 140.494 14.1998 142.732 13.8663L146.236 13.3382C147.018 13.227 147.234 12.8102 147.234 12.3377C147.234 11.0315 146.398 9.9476 144.43 9.9476C142.651 9.9476 141.653 11.0871 141.492 12.6434L139.065 12.0598C139.335 9.50293 141.572 7.72427 144.376 7.72427C148.258 7.72427 149.768 10.0032 149.768 12.6156V19.3135C149.768 20.4807 149.876 21.1755 149.929 21.509H147.449C147.395 21.1755 147.315 20.6753 147.315 19.7025C146.748 20.6475 145.454 21.9259 143.136 21.9259C140.494 21.9259 138.796 20.036 138.796 17.9239ZM143.486 19.7303C145.562 19.7303 147.234 18.702 147.234 15.7839V15.1725L143.271 15.7839C142.193 15.9506 141.384 16.5899 141.384 17.7849C141.384 18.7854 142.193 19.7303 143.486 19.7303Z" fill="white"/>
<path d="M137.062 8.00215V10.7814C136.685 10.7258 136.308 10.698 135.957 10.698C133.828 10.698 132.399 11.8652 132.399 14.8112V21.509H129.865V8.14111H132.345V10.4756C133.288 8.41903 134.906 7.91878 136.227 7.91878C136.577 7.91878 136.928 7.97436 137.062 8.00215Z" fill="white"/>
<path d="M127.294 8.14111L121.767 13.7829L127.402 21.509H124.221L119.988 15.6171L118.182 17.4792V21.509H115.675V1.38769H118.182V14.0608L123.789 8.14111H127.294Z" fill="white"/>
<path d="M104.577 21.9259C100.695 21.9259 97.7023 19.4246 97.7023 14.7834V1.80457H100.317V14.7C100.317 17.7015 101.908 19.3968 104.577 19.3968C107.272 19.3968 108.809 17.7015 108.809 14.7V1.80457H111.451V14.7834C111.451 19.4246 108.458 21.9259 104.577 21.9259Z" fill="white"/>
</svg>
